<mxfile host="app.diagrams.net" modified="2024-05-12T15:47:44.206Z" agent="Mozilla/5.0 (Windows NT 10.0; Win64; x64) AppleWebKit/537.36 (KHTML, like Gecko) Chrome/122.0.0.0 YaBrowser/24.4.0.0 Safari/537.36" etag="R-Xzp6N8iGaGB0-Ng5MP" version="24.4.0" type="github">
  <diagram name="Страница — 1" id="x_ZmiwT3lmJcUMUvpO1Q">
    <mxGraphModel dx="1300" dy="714" grid="0" gridSize="10" guides="1" tooltips="1" connect="1" arrows="1" fold="1" page="1" pageScale="1" pageWidth="827" pageHeight="1169" math="0" shadow="0">
      <root>
        <mxCell id="0" />
        <mxCell id="1" parent="0" />
        <mxCell id="HpGI6_TfemV24gVL3P8E-1" value="Сервер приложения" style="swimlane;fontStyle=1;align=center;verticalAlign=top;childLayout=stackLayout;horizontal=1;startSize=26;horizontalStack=0;resizeParent=1;resizeParentMax=0;resizeLast=0;collapsible=1;marginBottom=0;whiteSpace=wrap;html=1;" parent="1" vertex="1">
          <mxGeometry x="299" y="160" width="200" height="230" as="geometry" />
        </mxCell>
        <mxCell id="HpGI6_TfemV24gVL3P8E-2" value="+ Процессор: Intel Xeon E5-2620 v4, 2.1Ghz&lt;div&gt;+ ОС: Ubuntu 22.04&lt;/div&gt;&lt;div&gt;+ ОЗУ: 32ГБ DDR4&lt;/div&gt;&lt;div&gt;+ Жесткий диск: Seagate SkyHawk, 1ТБ&lt;/div&gt;&lt;div&gt;&lt;br&gt;&lt;/div&gt;" style="text;strokeColor=none;fillColor=none;align=left;verticalAlign=top;spacingLeft=4;spacingRight=4;overflow=hidden;rotatable=0;points=[[0,0.5],[1,0.5]];portConstraint=eastwest;whiteSpace=wrap;html=1;" parent="HpGI6_TfemV24gVL3P8E-1" vertex="1">
          <mxGeometry y="26" width="200" height="104" as="geometry" />
        </mxCell>
        <mxCell id="HpGI6_TfemV24gVL3P8E-3" value="" style="line;strokeWidth=1;fillColor=none;align=left;verticalAlign=middle;spacingTop=-1;spacingLeft=3;spacingRight=3;rotatable=0;labelPosition=right;points=[];portConstraint=eastwest;strokeColor=inherit;" parent="HpGI6_TfemV24gVL3P8E-1" vertex="1">
          <mxGeometry y="130" width="200" height="8" as="geometry" />
        </mxCell>
        <mxCell id="HpGI6_TfemV24gVL3P8E-4" value="+ Обработка запросов от клиента()&lt;div&gt;+ Отправка данных в БД()&lt;/div&gt;&lt;div&gt;+ Отправка запроса на чтение данных с БД()&lt;/div&gt;" style="text;strokeColor=none;fillColor=none;align=left;verticalAlign=top;spacingLeft=4;spacingRight=4;overflow=hidden;rotatable=0;points=[[0,0.5],[1,0.5]];portConstraint=eastwest;whiteSpace=wrap;html=1;" parent="HpGI6_TfemV24gVL3P8E-1" vertex="1">
          <mxGeometry y="138" width="200" height="92" as="geometry" />
        </mxCell>
        <mxCell id="HpGI6_TfemV24gVL3P8E-9" value="ОС сервера приложений" style="swimlane;fontStyle=1;align=center;verticalAlign=top;childLayout=stackLayout;horizontal=1;startSize=26;horizontalStack=0;resizeParent=1;resizeParentMax=0;resizeLast=0;collapsible=1;marginBottom=0;whiteSpace=wrap;html=1;" parent="1" vertex="1">
          <mxGeometry x="125" y="476" width="219" height="102" as="geometry" />
        </mxCell>
        <mxCell id="HpGI6_TfemV24gVL3P8E-10" value="+ Ubuntu 22.04" style="text;strokeColor=none;fillColor=none;align=left;verticalAlign=top;spacingLeft=4;spacingRight=4;overflow=hidden;rotatable=0;points=[[0,0.5],[1,0.5]];portConstraint=eastwest;whiteSpace=wrap;html=1;" parent="HpGI6_TfemV24gVL3P8E-9" vertex="1">
          <mxGeometry y="26" width="219" height="26" as="geometry" />
        </mxCell>
        <mxCell id="HpGI6_TfemV24gVL3P8E-11" value="" style="line;strokeWidth=1;fillColor=none;align=left;verticalAlign=middle;spacingTop=-1;spacingLeft=3;spacingRight=3;rotatable=0;labelPosition=right;points=[];portConstraint=eastwest;strokeColor=inherit;" parent="HpGI6_TfemV24gVL3P8E-9" vertex="1">
          <mxGeometry y="52" width="219" height="8" as="geometry" />
        </mxCell>
        <mxCell id="HpGI6_TfemV24gVL3P8E-12" value="+ Обеспечение связной работы компонентов()" style="text;strokeColor=none;fillColor=none;align=left;verticalAlign=top;spacingLeft=4;spacingRight=4;overflow=hidden;rotatable=0;points=[[0,0.5],[1,0.5]];portConstraint=eastwest;whiteSpace=wrap;html=1;" parent="HpGI6_TfemV24gVL3P8E-9" vertex="1">
          <mxGeometry y="60" width="219" height="42" as="geometry" />
        </mxCell>
        <mxCell id="HpGI6_TfemV24gVL3P8E-13" value="API" style="swimlane;fontStyle=1;align=center;verticalAlign=top;childLayout=stackLayout;horizontal=1;startSize=26;horizontalStack=0;resizeParent=1;resizeParentMax=0;resizeLast=0;collapsible=1;marginBottom=0;whiteSpace=wrap;html=1;" parent="1" vertex="1">
          <mxGeometry x="355" y="513" width="269" height="123" as="geometry" />
        </mxCell>
        <mxCell id="HpGI6_TfemV24gVL3P8E-14" value="" style="line;strokeWidth=1;fillColor=none;align=left;verticalAlign=middle;spacingTop=-1;spacingLeft=3;spacingRight=3;rotatable=0;labelPosition=right;points=[];portConstraint=eastwest;strokeColor=inherit;" parent="HpGI6_TfemV24gVL3P8E-13" vertex="1">
          <mxGeometry y="26" width="269" height="8" as="geometry" />
        </mxCell>
        <mxCell id="HpGI6_TfemV24gVL3P8E-15" value="+ Обработка запросов от клиента()&lt;div&gt;+ Расчет данных по определенным алгоритмам()&lt;/div&gt;&lt;div&gt;&lt;div&gt;+ Отправка данных в БД()&lt;/div&gt;&lt;div&gt;+ Отправка запроса на чтение данных с БД()&lt;/div&gt;&lt;/div&gt;" style="text;strokeColor=none;fillColor=none;align=left;verticalAlign=top;spacingLeft=4;spacingRight=4;overflow=hidden;rotatable=0;points=[[0,0.5],[1,0.5]];portConstraint=eastwest;whiteSpace=wrap;html=1;" parent="HpGI6_TfemV24gVL3P8E-13" vertex="1">
          <mxGeometry y="34" width="269" height="89" as="geometry" />
        </mxCell>
        <mxCell id="HpGI6_TfemV24gVL3P8E-16" value="" style="endArrow=diamondThin;endFill=0;endSize=12;html=1;rounded=0;entryX=0.11;entryY=0.989;entryDx=0;entryDy=0;entryPerimeter=0;exitX=0.5;exitY=0;exitDx=0;exitDy=0;" parent="1" target="HpGI6_TfemV24gVL3P8E-4" edge="1" source="HpGI6_TfemV24gVL3P8E-9">
          <mxGeometry width="160" relative="1" as="geometry">
            <mxPoint x="229.07000000000005" y="553" as="sourcePoint" />
            <mxPoint x="229.5" y="484" as="targetPoint" />
            <Array as="points">
              <mxPoint x="272" y="430" />
              <mxPoint x="305" y="418" />
            </Array>
          </mxGeometry>
        </mxCell>
        <mxCell id="HpGI6_TfemV24gVL3P8E-17" value="" style="endArrow=diamondThin;endFill=0;endSize=12;html=1;rounded=0;exitX=0.346;exitY=-0.004;exitDx=0;exitDy=0;exitPerimeter=0;entryX=0.441;entryY=0.991;entryDx=0;entryDy=0;entryPerimeter=0;" parent="1" source="HpGI6_TfemV24gVL3P8E-13" edge="1" target="HpGI6_TfemV24gVL3P8E-4">
          <mxGeometry width="160" relative="1" as="geometry">
            <mxPoint x="475" y="566" as="sourcePoint" />
            <mxPoint x="475" y="486" as="targetPoint" />
            <Array as="points" />
          </mxGeometry>
        </mxCell>
        <mxCell id="HpGI6_TfemV24gVL3P8E-18" value="Построитель отчетов" style="swimlane;fontStyle=1;align=center;verticalAlign=top;childLayout=stackLayout;horizontal=1;startSize=26;horizontalStack=0;resizeParent=1;resizeParentMax=0;resizeLast=0;collapsible=1;marginBottom=0;whiteSpace=wrap;html=1;" parent="1" vertex="1">
          <mxGeometry x="634" y="474" width="160" height="116" as="geometry" />
        </mxCell>
        <mxCell id="HpGI6_TfemV24gVL3P8E-19" value="" style="line;strokeWidth=1;fillColor=none;align=left;verticalAlign=middle;spacingTop=-1;spacingLeft=3;spacingRight=3;rotatable=0;labelPosition=right;points=[];portConstraint=eastwest;strokeColor=inherit;" parent="HpGI6_TfemV24gVL3P8E-18" vertex="1">
          <mxGeometry y="26" width="160" height="8" as="geometry" />
        </mxCell>
        <mxCell id="HpGI6_TfemV24gVL3P8E-20" value="+ Построение отчета и отправка по запросу()&lt;div&gt;+ Сохранение результатов в excel файл()&lt;/div&gt;" style="text;strokeColor=none;fillColor=none;align=left;verticalAlign=top;spacingLeft=4;spacingRight=4;overflow=hidden;rotatable=0;points=[[0,0.5],[1,0.5]];portConstraint=eastwest;whiteSpace=wrap;html=1;" parent="HpGI6_TfemV24gVL3P8E-18" vertex="1">
          <mxGeometry y="34" width="160" height="82" as="geometry" />
        </mxCell>
        <mxCell id="HpGI6_TfemV24gVL3P8E-21" value="" style="endArrow=diamondThin;endFill=0;endSize=12;html=1;rounded=0;entryX=0.729;entryY=1.004;entryDx=0;entryDy=0;exitX=0.5;exitY=0;exitDx=0;exitDy=0;entryPerimeter=0;" parent="1" source="HpGI6_TfemV24gVL3P8E-18" edge="1" target="HpGI6_TfemV24gVL3P8E-4">
          <mxGeometry width="160" relative="1" as="geometry">
            <mxPoint x="517" y="610" as="sourcePoint" />
            <mxPoint x="517.9300000000001" y="486" as="targetPoint" />
            <Array as="points">
              <mxPoint x="469" y="430" />
            </Array>
          </mxGeometry>
        </mxCell>
        <mxCell id="HpGI6_TfemV24gVL3P8E-24" value="БУП сервера приложения" style="swimlane;fontStyle=1;align=center;verticalAlign=top;childLayout=stackLayout;horizontal=1;startSize=26;horizontalStack=0;resizeParent=1;resizeParentMax=0;resizeLast=0;collapsible=1;marginBottom=0;whiteSpace=wrap;html=1;" parent="1" vertex="1">
          <mxGeometry x="605" y="195" width="200" height="160" as="geometry" />
        </mxCell>
        <mxCell id="HpGI6_TfemV24gVL3P8E-25" value="+ Номинальная мощность: 920ВТ&lt;div&gt;+ Стандарт эффективности: 80PLUS Platinum&lt;/div&gt;" style="text;strokeColor=none;fillColor=none;align=left;verticalAlign=top;spacingLeft=4;spacingRight=4;overflow=hidden;rotatable=0;points=[[0,0.5],[1,0.5]];portConstraint=eastwest;whiteSpace=wrap;html=1;" parent="HpGI6_TfemV24gVL3P8E-24" vertex="1">
          <mxGeometry y="26" width="200" height="54" as="geometry" />
        </mxCell>
        <mxCell id="HpGI6_TfemV24gVL3P8E-26" value="" style="line;strokeWidth=1;fillColor=none;align=left;verticalAlign=middle;spacingTop=-1;spacingLeft=3;spacingRight=3;rotatable=0;labelPosition=right;points=[];portConstraint=eastwest;strokeColor=inherit;" parent="HpGI6_TfemV24gVL3P8E-24" vertex="1">
          <mxGeometry y="80" width="200" height="8" as="geometry" />
        </mxCell>
        <mxCell id="HpGI6_TfemV24gVL3P8E-27" value="+ Подача питания на все компоненты сервера()&lt;div&gt;+ Недопущение перегорания компонентов сервера()&lt;/div&gt;" style="text;strokeColor=none;fillColor=none;align=left;verticalAlign=top;spacingLeft=4;spacingRight=4;overflow=hidden;rotatable=0;points=[[0,0.5],[1,0.5]];portConstraint=eastwest;whiteSpace=wrap;html=1;" parent="HpGI6_TfemV24gVL3P8E-24" vertex="1">
          <mxGeometry y="88" width="200" height="72" as="geometry" />
        </mxCell>
        <mxCell id="HpGI6_TfemV24gVL3P8E-28" value="" style="endArrow=diamondThin;endFill=0;endSize=12;html=1;rounded=0;entryX=1.003;entryY=0.805;entryDx=0;entryDy=0;entryPerimeter=0;exitX=-0.002;exitY=0.949;exitDx=0;exitDy=0;exitPerimeter=0;" parent="1" source="HpGI6_TfemV24gVL3P8E-25" target="HpGI6_TfemV24gVL3P8E-2" edge="1">
          <mxGeometry width="160" relative="1" as="geometry">
            <mxPoint x="552.54" y="374" as="sourcePoint" />
            <mxPoint x="553.47" y="250" as="targetPoint" />
            <Array as="points" />
          </mxGeometry>
        </mxCell>
        <mxCell id="HpGI6_TfemV24gVL3P8E-29" value="Техосмотр" style="swimlane;fontStyle=1;align=center;verticalAlign=top;childLayout=stackLayout;horizontal=1;startSize=26;horizontalStack=0;resizeParent=1;resizeParentMax=0;resizeLast=0;collapsible=1;marginBottom=0;whiteSpace=wrap;html=1;" parent="1" vertex="1">
          <mxGeometry x="15" y="210" width="210" height="130" as="geometry" />
        </mxCell>
        <mxCell id="HpGI6_TfemV24gVL3P8E-30" value="+ Периодичность: раз в 3 месяца&lt;div&gt;+ Чистка комплектующих&lt;/div&gt;&lt;div&gt;+ Проверка на повреждения&lt;/div&gt;" style="text;strokeColor=none;fillColor=none;align=left;verticalAlign=top;spacingLeft=4;spacingRight=4;overflow=hidden;rotatable=0;points=[[0,0.5],[1,0.5]];portConstraint=eastwest;whiteSpace=wrap;html=1;" parent="HpGI6_TfemV24gVL3P8E-29" vertex="1">
          <mxGeometry y="26" width="210" height="54" as="geometry" />
        </mxCell>
        <mxCell id="HpGI6_TfemV24gVL3P8E-31" value="" style="line;strokeWidth=1;fillColor=none;align=left;verticalAlign=middle;spacingTop=-1;spacingLeft=3;spacingRight=3;rotatable=0;labelPosition=right;points=[];portConstraint=eastwest;strokeColor=inherit;" parent="HpGI6_TfemV24gVL3P8E-29" vertex="1">
          <mxGeometry y="80" width="210" height="8" as="geometry" />
        </mxCell>
        <mxCell id="HpGI6_TfemV24gVL3P8E-32" value="+ Поддержание сервера в работоспособном состоянии()" style="text;strokeColor=none;fillColor=none;align=left;verticalAlign=top;spacingLeft=4;spacingRight=4;overflow=hidden;rotatable=0;points=[[0,0.5],[1,0.5]];portConstraint=eastwest;whiteSpace=wrap;html=1;" parent="HpGI6_TfemV24gVL3P8E-29" vertex="1">
          <mxGeometry y="88" width="210" height="42" as="geometry" />
        </mxCell>
        <mxCell id="HpGI6_TfemV24gVL3P8E-33" value="" style="endArrow=diamondThin;endFill=0;endSize=12;html=1;rounded=0;entryX=0;entryY=0.5;entryDx=0;entryDy=0;exitX=1;exitY=0.5;exitDx=0;exitDy=0;" parent="1" source="HpGI6_TfemV24gVL3P8E-30" target="HpGI6_TfemV24gVL3P8E-2" edge="1">
          <mxGeometry width="160" relative="1" as="geometry">
            <mxPoint x="340" y="322" as="sourcePoint" />
            <mxPoint x="235" y="320" as="targetPoint" />
            <Array as="points" />
          </mxGeometry>
        </mxCell>
        <mxCell id="HpGI6_TfemV24gVL3P8E-34" value="Замена станции с переносом помяти" style="swimlane;fontStyle=1;align=center;verticalAlign=top;childLayout=stackLayout;horizontal=1;startSize=26;horizontalStack=0;resizeParent=1;resizeParentMax=0;resizeLast=0;collapsible=1;marginBottom=0;whiteSpace=wrap;html=1;" parent="1" vertex="1">
          <mxGeometry x="244" y="18" width="342" height="86" as="geometry" />
        </mxCell>
        <mxCell id="HpGI6_TfemV24gVL3P8E-35" value="+ Периодичность: раз в 5 лет и в случае поломки" style="text;strokeColor=none;fillColor=none;align=left;verticalAlign=top;spacingLeft=4;spacingRight=4;overflow=hidden;rotatable=0;points=[[0,0.5],[1,0.5]];portConstraint=eastwest;whiteSpace=wrap;html=1;" parent="HpGI6_TfemV24gVL3P8E-34" vertex="1">
          <mxGeometry y="26" width="342" height="26" as="geometry" />
        </mxCell>
        <mxCell id="HpGI6_TfemV24gVL3P8E-36" value="" style="line;strokeWidth=1;fillColor=none;align=left;verticalAlign=middle;spacingTop=-1;spacingLeft=3;spacingRight=3;rotatable=0;labelPosition=right;points=[];portConstraint=eastwest;strokeColor=inherit;" parent="HpGI6_TfemV24gVL3P8E-34" vertex="1">
          <mxGeometry y="52" width="342" height="8" as="geometry" />
        </mxCell>
        <mxCell id="HpGI6_TfemV24gVL3P8E-37" value="+ Замена устройств в случае поломки или устаревания()" style="text;strokeColor=none;fillColor=none;align=left;verticalAlign=top;spacingLeft=4;spacingRight=4;overflow=hidden;rotatable=0;points=[[0,0.5],[1,0.5]];portConstraint=eastwest;whiteSpace=wrap;html=1;" parent="HpGI6_TfemV24gVL3P8E-34" vertex="1">
          <mxGeometry y="60" width="342" height="26" as="geometry" />
        </mxCell>
        <mxCell id="HpGI6_TfemV24gVL3P8E-39" value="" style="endArrow=diamondThin;endFill=0;endSize=12;html=1;rounded=0;entryX=0.5;entryY=0;entryDx=0;entryDy=0;exitX=0.461;exitY=1.017;exitDx=0;exitDy=0;exitPerimeter=0;" parent="1" source="HpGI6_TfemV24gVL3P8E-37" target="HpGI6_TfemV24gVL3P8E-1" edge="1">
          <mxGeometry width="160" relative="1" as="geometry">
            <mxPoint x="523" y="147" as="sourcePoint" />
            <mxPoint x="418" y="145" as="targetPoint" />
            <Array as="points" />
          </mxGeometry>
        </mxCell>
        <mxCell id="jrs0Z81M4bjDtGcJTPGH-2" value="Драйвер" style="swimlane;fontStyle=1;align=center;verticalAlign=top;childLayout=stackLayout;horizontal=1;startSize=26;horizontalStack=0;resizeParent=1;resizeParentMax=0;resizeLast=0;collapsible=1;marginBottom=0;whiteSpace=wrap;html=1;" parent="1" vertex="1">
          <mxGeometry x="584" y="376" width="233" height="65" as="geometry" />
        </mxCell>
        <mxCell id="jrs0Z81M4bjDtGcJTPGH-3" value="" style="line;strokeWidth=1;fillColor=none;align=left;verticalAlign=middle;spacingTop=-1;spacingLeft=3;spacingRight=3;rotatable=0;labelPosition=right;points=[];portConstraint=eastwest;strokeColor=inherit;" parent="jrs0Z81M4bjDtGcJTPGH-2" vertex="1">
          <mxGeometry y="26" width="233" height="8" as="geometry" />
        </mxCell>
        <mxCell id="jrs0Z81M4bjDtGcJTPGH-4" value="+ Обеспечивает работу компонентов()" style="text;strokeColor=none;fillColor=none;align=left;verticalAlign=top;spacingLeft=4;spacingRight=4;overflow=hidden;rotatable=0;points=[[0,0.5],[1,0.5]];portConstraint=eastwest;whiteSpace=wrap;html=1;" parent="jrs0Z81M4bjDtGcJTPGH-2" vertex="1">
          <mxGeometry y="34" width="233" height="31" as="geometry" />
        </mxCell>
        <mxCell id="jrs0Z81M4bjDtGcJTPGH-5" value="" style="endArrow=diamondThin;endFill=0;endSize=12;html=1;rounded=0;exitX=0.001;exitY=0.156;exitDx=0;exitDy=0;exitPerimeter=0;entryX=1;entryY=0.5;entryDx=0;entryDy=0;" parent="1" source="jrs0Z81M4bjDtGcJTPGH-4" edge="1">
          <mxGeometry width="160" relative="1" as="geometry">
            <mxPoint x="674.8" y="425" as="sourcePoint" />
            <mxPoint x="499" y="340" as="targetPoint" />
            <Array as="points" />
          </mxGeometry>
        </mxCell>
      </root>
    </mxGraphModel>
  </diagram>
</mxfile>
